<svg id="visual" viewBox="0 0 900 600" width="900" height="600" xmlns="http://www.w3.org/2000/svg" xmlns:xlink="http://www.w3.org/1999/xlink" version="1.1"><path d="M0 455L21.5 448.2C43 441.3 86 427.7 128.8 439.2C171.7 450.7 214.3 487.3 257.2 486.8C300 486.3 343 448.7 385.8 442C428.7 435.3 471.3 459.7 514.2 474.5C557 489.3 600 494.7 642.8 489.3C685.7 484 728.3 468 771.2 456.5C814 445 857 438 878.5 434.5L900 431L900 601L878.5 601C857 601 814 601 771.2 601C728.3 601 685.7 601 642.8 601C600 601 557 601 514.2 601C471.3 601 428.7 601 385.8 601C343 601 300 601 257.2 601C214.3 601 171.7 601 128.8 601C86 601 43 601 21.5 601L0 601Z" fill="#F5C32C" stroke-linecap="round" stroke-linejoin="miter"></path></svg>